<svg xmlns="http://www.w3.org/2000/svg" xmlns:xlink="http://www.w3.org/1999/xlink" width="40" zoomAndPan="magnify" viewBox="0 0 30 30.000001" height="40" preserveAspectRatio="xMidYMid meet" version="1.0"><defs><clipPath id="0508d38533"><path d="M 1.742188 1.257812 L 28.640625 1.257812 L 28.640625 28 L 1.742188 28 Z M 1.742188 1.257812 " clip-rule="nonzero"/></clipPath><clipPath id="397b4cce56"><path d="M 6.511719 6.027344 L 23.5 6.027344 L 23.5 23 L 6.511719 23 Z M 6.511719 6.027344 " clip-rule="nonzero"/></clipPath></defs><g clip-path="url(#0508d38533)"><path fill="#f3e8cc" d="M 28.242188 14.507812 C 28.242188 15.378906 28.15625 16.242188 27.988281 17.09375 C 27.816406 17.945312 27.566406 18.777344 27.234375 19.578125 C 26.902344 20.382812 26.492188 21.144531 26.007812 21.871094 C 25.527344 22.59375 24.976562 23.261719 24.363281 23.878906 C 23.746094 24.492188 23.078125 25.042969 22.355469 25.523438 C 21.628906 26.007812 20.867188 26.417969 20.0625 26.75 C 19.257812 27.082031 18.429688 27.332031 17.578125 27.503906 C 16.722656 27.671875 15.863281 27.757812 14.992188 27.757812 C 14.121094 27.757812 13.261719 27.671875 12.40625 27.503906 C 11.554688 27.332031 10.726562 27.082031 9.921875 26.75 C 9.117188 26.417969 8.355469 26.007812 7.632812 25.523438 C 6.910156 25.042969 6.238281 24.492188 5.625 23.878906 C 5.007812 23.261719 4.460938 22.59375 3.976562 21.871094 C 3.492188 21.144531 3.085938 20.382812 2.753906 19.578125 C 2.417969 18.777344 2.167969 17.945312 2 17.09375 C 1.828125 16.242188 1.742188 15.378906 1.742188 14.507812 C 1.742188 13.640625 1.828125 12.777344 2 11.925781 C 2.167969 11.070312 2.417969 10.242188 2.753906 9.4375 C 3.085938 8.636719 3.492188 7.871094 3.976562 7.148438 C 4.460938 6.425781 5.007812 5.753906 5.625 5.140625 C 6.238281 4.523438 6.910156 3.976562 7.632812 3.492188 C 8.355469 3.007812 9.117188 2.601562 9.921875 2.269531 C 10.726562 1.933594 11.554688 1.683594 12.40625 1.515625 C 13.261719 1.34375 14.121094 1.257812 14.992188 1.257812 C 15.863281 1.257812 16.722656 1.34375 17.578125 1.515625 C 18.429688 1.683594 19.257812 1.933594 20.0625 2.269531 C 20.867188 2.601562 21.628906 3.007812 22.355469 3.492188 C 23.078125 3.976562 23.746094 4.523438 24.363281 5.140625 C 24.976562 5.753906 25.527344 6.425781 26.007812 7.148438 C 26.492188 7.871094 26.902344 8.636719 27.234375 9.4375 C 27.566406 10.242188 27.816406 11.070312 27.988281 11.925781 C 28.15625 12.777344 28.242188 13.640625 28.242188 14.507812 Z M 28.242188 14.507812 " fill-opacity="1" fill-rule="nonzero"/></g><g clip-path="url(#397b4cce56)"><path fill="#236130" d="M 23.476562 14.511719 C 23.476562 9.828125 19.679688 6.027344 14.996094 6.027344 C 10.308594 6.027344 6.511719 9.828125 6.511719 14.511719 C 6.511719 18.488281 9.253906 21.828125 12.949219 22.746094 L 12.949219 17.101562 L 11.199219 17.101562 L 11.199219 14.511719 L 12.949219 14.511719 L 12.949219 13.394531 C 12.949219 10.507812 14.253906 9.171875 17.089844 9.171875 C 17.625 9.171875 18.554688 9.277344 18.933594 9.382812 L 18.933594 11.726562 C 18.738281 11.707031 18.386719 11.695312 17.953125 11.695312 C 16.5625 11.695312 16.027344 12.222656 16.027344 13.589844 L 16.027344 14.511719 L 18.796875 14.511719 L 18.320312 17.101562 L 16.023438 17.101562 L 16.023438 22.929688 C 20.222656 22.425781 23.476562 18.847656 23.476562 14.511719 Z M 23.476562 14.511719 " fill-opacity="1" fill-rule="nonzero"/></g></svg>