<svg xmlns="http://www.w3.org/2000/svg" xmlns:xlink="http://www.w3.org/1999/xlink" width="40" zoomAndPan="magnify" viewBox="0 0 30 30.000001" height="40" preserveAspectRatio="xMidYMid meet" version="1.0"><defs><clipPath id="3582d7fe96"><path d="M 1.714844 1.230469 L 28.554688 1.230469 L 28.554688 28 L 1.714844 28 Z M 1.714844 1.230469 " clip-rule="nonzero"/></clipPath><clipPath id="61b1dafbe2"><path d="M 7.5625 7 L 23 7 L 23 22 L 7.5625 22 Z M 7.5625 7 " clip-rule="nonzero"/></clipPath></defs><g clip-path="url(#3582d7fe96)"><path fill="#f3e8cc" d="M 28.265625 14.507812 C 28.265625 15.378906 28.179688 16.242188 28.011719 17.097656 C 27.839844 17.953125 27.589844 18.78125 27.257812 19.585938 C 26.921875 20.390625 26.511719 21.15625 26.027344 21.882812 C 25.542969 22.605469 24.996094 23.277344 24.378906 23.894531 C 23.761719 24.511719 23.089844 25.0625 22.367188 25.546875 C 21.640625 26.03125 20.875 26.4375 20.070312 26.773438 C 19.265625 27.105469 18.433594 27.359375 17.582031 27.527344 C 16.726562 27.699219 15.863281 27.78125 14.988281 27.78125 C 14.117188 27.78125 13.253906 27.699219 12.398438 27.527344 C 11.546875 27.359375 10.714844 27.105469 9.910156 26.773438 C 9.105469 26.4375 8.339844 26.03125 7.613281 25.546875 C 6.890625 25.0625 6.21875 24.511719 5.601562 23.894531 C 4.984375 23.277344 4.4375 22.605469 3.953125 21.882812 C 3.46875 21.15625 3.058594 20.390625 2.722656 19.585938 C 2.390625 18.78125 2.140625 17.953125 1.96875 17.097656 C 1.800781 16.242188 1.714844 15.378906 1.714844 14.507812 C 1.714844 13.632812 1.800781 12.769531 1.96875 11.917969 C 2.140625 11.0625 2.390625 10.230469 2.722656 9.425781 C 3.058594 8.621094 3.46875 7.855469 3.953125 7.128906 C 4.4375 6.40625 4.984375 5.734375 5.601562 5.117188 C 6.21875 4.503906 6.890625 3.953125 7.613281 3.46875 C 8.339844 2.984375 9.105469 2.574219 9.910156 2.242188 C 10.714844 1.90625 11.546875 1.65625 12.398438 1.484375 C 13.253906 1.316406 14.117188 1.230469 14.988281 1.230469 C 15.863281 1.230469 16.726562 1.316406 17.582031 1.484375 C 18.433594 1.65625 19.265625 1.90625 20.070312 2.242188 C 20.875 2.574219 21.640625 2.984375 22.367188 3.46875 C 23.089844 3.953125 23.761719 4.503906 24.378906 5.117188 C 24.996094 5.734375 25.542969 6.40625 26.027344 7.128906 C 26.511719 7.855469 26.921875 8.621094 27.257812 9.425781 C 27.589844 10.230469 27.839844 11.0625 28.011719 11.917969 C 28.179688 12.769531 28.265625 13.632812 28.265625 14.507812 Z M 28.265625 14.507812 " fill-opacity="1" fill-rule="nonzero"/></g><g clip-path="url(#61b1dafbe2)"><path fill="#236130" d="M 15.003906 10.691406 C 12.890625 10.691406 11.1875 12.394531 11.1875 14.503906 C 11.1875 16.617188 12.890625 18.320312 15.003906 18.320312 C 17.113281 18.320312 18.816406 16.617188 18.816406 14.503906 C 18.816406 12.394531 17.113281 10.691406 15.003906 10.691406 Z M 15.003906 16.984375 C 13.636719 16.984375 12.523438 15.871094 12.523438 14.503906 C 12.523438 13.136719 13.636719 12.023438 15.003906 12.023438 C 16.371094 12.023438 17.480469 13.136719 17.480469 14.503906 C 17.480469 15.871094 16.367188 16.984375 15.003906 16.984375 Z M 19.863281 10.535156 C 19.863281 11.027344 19.464844 11.425781 18.972656 11.425781 C 18.476562 11.425781 18.082031 11.027344 18.082031 10.535156 C 18.082031 10.042969 18.480469 9.644531 18.972656 9.644531 C 19.464844 9.644531 19.863281 10.042969 19.863281 10.535156 Z M 22.386719 11.4375 C 22.332031 10.246094 22.058594 9.191406 21.1875 8.320312 C 20.316406 7.449219 19.261719 7.179688 18.070312 7.117188 C 16.839844 7.050781 13.160156 7.050781 11.933594 7.117188 C 10.742188 7.175781 9.6875 7.449219 8.816406 8.316406 C 7.941406 9.1875 7.671875 10.242188 7.613281 11.433594 C 7.542969 12.664062 7.542969 16.34375 7.613281 17.570312 C 7.671875 18.761719 7.941406 19.820312 8.816406 20.6875 C 9.6875 21.558594 10.742188 21.832031 11.933594 21.890625 C 13.160156 21.960938 16.839844 21.960938 18.070312 21.890625 C 19.261719 21.832031 20.316406 21.5625 21.1875 20.6875 C 22.054688 19.820312 22.328125 18.761719 22.386719 17.570312 C 22.457031 16.34375 22.457031 12.664062 22.386719 11.4375 Z M 20.800781 18.890625 C 20.542969 19.539062 20.042969 20.042969 19.386719 20.304688 C 18.410156 20.691406 16.085938 20.601562 15.003906 20.601562 C 13.921875 20.601562 11.59375 20.6875 10.617188 20.304688 C 9.96875 20.042969 9.464844 19.542969 9.203125 18.890625 C 8.816406 17.910156 8.90625 15.585938 8.90625 14.503906 C 8.90625 13.421875 8.820312 11.09375 9.203125 10.121094 C 9.460938 9.46875 9.964844 8.96875 10.617188 8.707031 C 11.597656 8.316406 13.921875 8.40625 15.003906 8.40625 C 16.085938 8.40625 18.410156 8.320312 19.386719 8.707031 C 20.039062 8.964844 20.539062 9.464844 20.800781 10.121094 C 21.191406 11.097656 21.101562 13.421875 21.101562 14.503906 C 21.101562 15.585938 21.191406 17.914062 20.800781 18.890625 Z M 20.800781 18.890625 " fill-opacity="1" fill-rule="nonzero"/></g></svg>