<svg xmlns="http://www.w3.org/2000/svg" xmlns:xlink="http://www.w3.org/1999/xlink" width="40" zoomAndPan="magnify" viewBox="0 0 30 30.000001" height="40" preserveAspectRatio="xMidYMid meet" version="1.0"><defs><clipPath id="60124cfc71"><path d="M 1.738281 1.257812 L 28.628906 1.257812 L 28.628906 28 L 1.738281 28 Z M 1.738281 1.257812 " clip-rule="nonzero"/></clipPath><clipPath id="f3f53baaeb"><path d="M 7.574219 6.027344 L 21.726562 6.027344 L 21.726562 23 L 7.574219 23 Z M 7.574219 6.027344 " clip-rule="nonzero"/></clipPath></defs><g clip-path="url(#60124cfc71)"><path fill="#f3e8cc" d="M 28.253906 14.511719 C 28.253906 15.382812 28.167969 16.246094 28 17.097656 C 27.828125 17.953125 27.578125 18.78125 27.246094 19.585938 C 26.910156 20.390625 26.503906 21.152344 26.019531 21.878906 C 25.535156 22.601562 24.984375 23.269531 24.371094 23.886719 C 23.753906 24.503906 23.085938 25.050781 22.363281 25.535156 C 21.636719 26.019531 20.875 26.425781 20.070312 26.761719 C 19.265625 27.09375 18.4375 27.34375 17.582031 27.515625 C 16.730469 27.683594 15.867188 27.769531 14.996094 27.769531 C 14.125 27.769531 13.265625 27.683594 12.410156 27.515625 C 11.554688 27.34375 10.726562 27.09375 9.921875 26.761719 C 9.121094 26.425781 8.355469 26.019531 7.632812 25.535156 C 6.90625 25.050781 6.238281 24.503906 5.621094 23.886719 C 5.007812 23.269531 4.457031 22.601562 3.972656 21.878906 C 3.492188 21.152344 3.082031 20.390625 2.75 19.585938 C 2.414062 18.78125 2.164062 17.953125 1.996094 17.097656 C 1.824219 16.246094 1.738281 15.382812 1.738281 14.511719 C 1.738281 13.640625 1.824219 12.78125 1.996094 11.925781 C 2.164062 11.074219 2.414062 10.242188 2.75 9.441406 C 3.082031 8.636719 3.492188 7.871094 3.972656 7.148438 C 4.457031 6.425781 5.007812 5.753906 5.621094 5.140625 C 6.238281 4.523438 6.90625 3.972656 7.632812 3.488281 C 8.355469 3.007812 9.121094 2.597656 9.921875 2.265625 C 10.726562 1.933594 11.554688 1.679688 12.410156 1.511719 C 13.265625 1.339844 14.125 1.257812 14.996094 1.257812 C 15.867188 1.257812 16.730469 1.339844 17.582031 1.511719 C 18.4375 1.679688 19.265625 1.933594 20.070312 2.265625 C 20.875 2.597656 21.636719 3.007812 22.363281 3.488281 C 23.085938 3.972656 23.753906 4.523438 24.371094 5.140625 C 24.984375 5.753906 25.535156 6.425781 26.019531 7.148438 C 26.503906 7.871094 26.910156 8.636719 27.246094 9.441406 C 27.578125 10.242188 27.828125 11.074219 28 11.925781 C 28.167969 12.78125 28.253906 13.640625 28.253906 14.511719 Z M 28.253906 14.511719 " fill-opacity="1" fill-rule="nonzero"/></g><g clip-path="url(#f3f53baaeb)"><path fill="#236130" d="M 22.414062 12.980469 C 20.917969 12.984375 19.5625 12.550781 18.347656 11.679688 L 18.347656 17.601562 C 18.347656 17.964844 18.308594 18.324219 18.238281 18.679688 C 18.164062 19.039062 18.054688 19.382812 17.910156 19.71875 C 17.769531 20.054688 17.59375 20.371094 17.386719 20.667969 C 17.179688 20.96875 16.941406 21.242188 16.679688 21.496094 C 16.414062 21.746094 16.128906 21.96875 15.820312 22.160156 C 15.511719 22.355469 15.1875 22.515625 14.847656 22.644531 C 14.507812 22.769531 14.15625 22.863281 13.796875 22.917969 C 13.4375 22.976562 13.074219 22.996094 12.710938 22.976562 C 12.347656 22.960938 11.988281 22.910156 11.636719 22.820312 C 11.285156 22.730469 10.945312 22.605469 10.617188 22.445312 C 10.289062 22.289062 9.980469 22.097656 9.691406 21.878906 C 9.402344 21.65625 9.136719 21.410156 8.898438 21.132812 C 8.660156 20.859375 8.449219 20.5625 8.273438 20.246094 C 8.09375 19.929688 7.945312 19.597656 7.835938 19.25 C 7.722656 18.90625 7.648438 18.550781 7.609375 18.1875 C 7.566406 17.828125 7.566406 17.464844 7.597656 17.101562 C 7.632812 16.742188 7.703125 16.386719 7.808594 16.035156 C 7.914062 15.6875 8.050781 15.355469 8.226562 15.035156 C 8.398438 14.714844 8.601562 14.414062 8.835938 14.136719 C 9.070312 13.855469 9.332031 13.605469 9.617188 13.378906 C 9.902344 13.152344 10.207031 12.957031 10.53125 12.792969 C 10.855469 12.628906 11.195312 12.5 11.546875 12.402344 C 11.898438 12.308594 12.253906 12.246094 12.617188 12.222656 C 12.980469 12.203125 13.34375 12.214844 13.703125 12.265625 L 13.703125 15.242188 C 13.371094 15.136719 13.03125 15.105469 12.683594 15.144531 C 12.335938 15.183594 12.011719 15.292969 11.710938 15.46875 C 11.40625 15.644531 11.15625 15.875 10.953125 16.160156 C 10.75 16.445312 10.613281 16.757812 10.542969 17.101562 C 10.46875 17.441406 10.472656 17.785156 10.546875 18.125 C 10.621094 18.464844 10.761719 18.777344 10.96875 19.058594 C 11.175781 19.339844 11.429688 19.570312 11.734375 19.742188 C 12.035156 19.917969 12.363281 20.019531 12.710938 20.058594 C 13.058594 20.09375 13.398438 20.054688 13.730469 19.949219 C 14.0625 19.839844 14.355469 19.667969 14.617188 19.433594 C 14.875 19.199219 15.078125 18.921875 15.21875 18.601562 C 15.359375 18.285156 15.429688 17.949219 15.433594 17.601562 L 15.433594 6.027344 L 18.347656 6.027344 C 18.34375 6.273438 18.367188 6.519531 18.410156 6.761719 C 18.511719 7.308594 18.71875 7.8125 19.027344 8.277344 C 19.339844 8.738281 19.726562 9.117188 20.195312 9.417969 C 20.867188 9.863281 21.605469 10.085938 22.414062 10.085938 Z M 22.414062 12.980469 " fill-opacity="1" fill-rule="nonzero"/></g></svg>