<svg xmlns="http://www.w3.org/2000/svg" xmlns:xlink="http://www.w3.org/1999/xlink" width="40" zoomAndPan="magnify" viewBox="0 0 30 30.000001" height="40" preserveAspectRatio="xMidYMid meet" version="1.0"><defs><clipPath id="1d299bb1d7"><path d="M 1.667969 1.183594 L 28.421875 1.183594 L 28.421875 27.9375 L 1.667969 27.9375 Z M 1.667969 1.183594 " clip-rule="nonzero"/></clipPath><clipPath id="6280cda0a8"><path d="M 7.535156 7 L 23 7 L 23 22 L 7.535156 22 Z M 7.535156 7 " clip-rule="nonzero"/></clipPath></defs><g clip-path="url(#1d299bb1d7)"><path fill="#f3e8cc" d="M 28.3125 14.503906 C 28.3125 15.378906 28.226562 16.246094 28.054688 17.105469 C 27.882812 17.960938 27.632812 18.796875 27.296875 19.601562 C 26.960938 20.410156 26.550781 21.179688 26.066406 21.90625 C 25.578125 22.632812 25.027344 23.308594 24.410156 23.925781 C 23.789062 24.542969 23.117188 25.097656 22.390625 25.582031 C 21.664062 26.066406 20.894531 26.476562 20.085938 26.8125 C 19.277344 27.148438 18.445312 27.402344 17.589844 27.570312 C 16.730469 27.742188 15.863281 27.828125 14.988281 27.828125 C 14.113281 27.828125 13.25 27.742188 12.390625 27.570312 C 11.53125 27.402344 10.699219 27.148438 9.890625 26.8125 C 9.082031 26.476562 8.316406 26.066406 7.589844 25.582031 C 6.859375 25.097656 6.1875 24.542969 5.570312 23.925781 C 4.953125 23.308594 4.398438 22.632812 3.914062 21.90625 C 3.425781 21.179688 3.015625 20.410156 2.683594 19.601562 C 2.347656 18.796875 2.09375 17.960938 1.925781 17.105469 C 1.753906 16.246094 1.667969 15.378906 1.667969 14.503906 C 1.667969 13.632812 1.753906 12.765625 1.925781 11.90625 C 2.09375 11.050781 2.347656 10.214844 2.683594 9.40625 C 3.015625 8.601562 3.425781 7.832031 3.914062 7.105469 C 4.398438 6.378906 4.953125 5.703125 5.570312 5.085938 C 6.1875 4.46875 6.859375 3.914062 7.589844 3.429688 C 8.316406 2.941406 9.082031 2.53125 9.890625 2.199219 C 10.699219 1.863281 11.53125 1.609375 12.390625 1.441406 C 13.25 1.269531 14.113281 1.183594 14.988281 1.183594 C 15.863281 1.183594 16.730469 1.269531 17.589844 1.441406 C 18.445312 1.609375 19.277344 1.863281 20.085938 2.199219 C 20.894531 2.53125 21.664062 2.941406 22.390625 3.429688 C 23.117188 3.914062 23.789062 4.46875 24.410156 5.085938 C 25.027344 5.703125 25.578125 6.378906 26.066406 7.105469 C 26.550781 7.832031 26.960938 8.601562 27.296875 9.40625 C 27.632812 10.214844 27.882812 11.050781 28.054688 11.90625 C 28.226562 12.765625 28.3125 13.632812 28.3125 14.503906 Z M 28.3125 14.503906 " fill-opacity="1" fill-rule="nonzero"/></g><g clip-path="url(#6280cda0a8)"><path fill="#236130" d="M 20.21875 9.214844 C 18.824219 7.816406 16.964844 7.046875 14.992188 7.046875 C 10.914062 7.046875 7.597656 10.363281 7.597656 14.4375 C 7.597656 15.742188 7.9375 17.011719 8.585938 18.136719 L 7.535156 21.964844 L 11.453125 20.933594 C 12.53125 21.523438 13.75 21.835938 14.988281 21.835938 L 14.992188 21.835938 C 19.0625 21.835938 22.453125 18.519531 22.453125 14.441406 C 22.453125 12.46875 21.613281 10.613281 20.21875 9.214844 Z M 14.992188 20.589844 C 13.886719 20.589844 12.804688 20.292969 11.859375 19.734375 L 11.636719 19.601562 L 9.3125 20.210938 L 9.933594 17.941406 L 9.785156 17.710938 C 9.171875 16.730469 8.847656 15.601562 8.847656 14.4375 C 8.847656 11.054688 11.605469 8.296875 14.992188 8.296875 C 16.636719 8.296875 18.175781 8.9375 19.335938 10.097656 C 20.492188 11.257812 21.207031 12.800781 21.203125 14.441406 C 21.203125 17.832031 18.375 20.589844 14.992188 20.589844 Z M 18.359375 15.988281 C 18.175781 15.894531 17.269531 15.449219 17.097656 15.386719 C 16.929688 15.324219 16.804688 15.296875 16.683594 15.480469 C 16.558594 15.667969 16.207031 16.082031 16.097656 16.207031 C 15.988281 16.332031 15.878906 16.347656 15.695312 16.253906 C 14.609375 15.710938 13.898438 15.285156 13.183594 14.054688 C 12.992188 13.730469 13.371094 13.753906 13.726562 13.046875 C 13.785156 12.925781 13.753906 12.816406 13.707031 12.726562 C 13.660156 12.632812 13.292969 11.722656 13.140625 11.351562 C 12.988281 10.992188 12.835938 11.042969 12.722656 11.035156 C 12.617188 11.03125 12.492188 11.03125 12.371094 11.03125 C 12.246094 11.03125 12.046875 11.078125 11.878906 11.257812 C 11.707031 11.445312 11.230469 11.890625 11.230469 12.800781 C 11.230469 13.710938 11.894531 14.589844 11.984375 14.710938 C 12.078125 14.835938 13.285156 16.699219 15.140625 17.503906 C 16.3125 18.007812 16.773438 18.050781 17.359375 17.964844 C 17.714844 17.914062 18.449219 17.519531 18.601562 17.085938 C 18.757812 16.652344 18.757812 16.285156 18.710938 16.207031 C 18.667969 16.125 18.542969 16.078125 18.359375 15.988281 Z M 18.359375 15.988281 " fill-opacity="1" fill-rule="nonzero"/></g></svg>