<svg xmlns="http://www.w3.org/2000/svg" xmlns:xlink="http://www.w3.org/1999/xlink" width="40" zoomAndPan="magnify" viewBox="0 0 30 30.000001" height="40" preserveAspectRatio="xMidYMid meet" version="1.0"><defs><clipPath id="a830b52b41"><path d="M 1.550781 1.070312 L 28.945312 1.070312 L 28.945312 28 L 1.550781 28 Z M 1.550781 1.070312 " clip-rule="nonzero"/></clipPath></defs><g clip-path="url(#a830b52b41)"><path fill="#f3e8cc" d="M 28.425781 14.503906 C 28.425781 15.386719 28.339844 16.261719 28.167969 17.125 C 27.996094 17.992188 27.742188 18.832031 27.402344 19.648438 C 27.066406 20.460938 26.652344 21.238281 26.160156 21.96875 C 25.671875 22.703125 25.113281 23.382812 24.492188 24.007812 C 23.867188 24.628906 23.1875 25.1875 22.453125 25.675781 C 21.71875 26.167969 20.945312 26.582031 20.132812 26.917969 C 19.316406 27.257812 18.476562 27.511719 17.609375 27.683594 C 16.746094 27.855469 15.871094 27.941406 14.988281 27.941406 C 14.105469 27.941406 13.234375 27.855469 12.367188 27.683594 C 11.503906 27.511719 10.664062 27.257812 9.847656 26.917969 C 9.03125 26.582031 8.257812 26.167969 7.523438 25.675781 C 6.789062 25.1875 6.113281 24.628906 5.488281 24.007812 C 4.863281 23.382812 4.308594 22.703125 3.816406 21.96875 C 3.328125 21.238281 2.914062 20.460938 2.574219 19.648438 C 2.238281 18.832031 1.984375 17.992188 1.8125 17.125 C 1.636719 16.261719 1.550781 15.386719 1.550781 14.503906 C 1.550781 13.621094 1.636719 12.75 1.8125 11.882812 C 1.984375 11.019531 2.238281 10.179688 2.574219 9.363281 C 2.914062 8.546875 3.328125 7.773438 3.816406 7.039062 C 4.308594 6.304688 4.863281 5.628906 5.488281 5.003906 C 6.113281 4.378906 6.789062 3.824219 7.523438 3.332031 C 8.257812 2.84375 9.03125 2.429688 9.847656 2.089844 C 10.664062 1.753906 11.503906 1.5 12.367188 1.328125 C 13.234375 1.15625 14.105469 1.070312 14.988281 1.070312 C 15.871094 1.070312 16.746094 1.15625 17.609375 1.328125 C 18.476562 1.5 19.316406 1.753906 20.132812 2.089844 C 20.945312 2.429688 21.71875 2.84375 22.453125 3.332031 C 23.1875 3.824219 23.867188 4.378906 24.492188 5.003906 C 25.113281 5.628906 25.671875 6.304688 26.160156 7.039062 C 26.652344 7.773438 27.066406 8.546875 27.402344 9.363281 C 27.742188 10.179688 27.996094 11.019531 28.167969 11.882812 C 28.339844 12.75 28.425781 13.621094 28.425781 14.503906 Z M 28.425781 14.503906 " fill-opacity="1" fill-rule="nonzero"/></g><path fill="#236130" d="M 19.472656 7.519531 L 21.847656 7.519531 L 16.664062 13.441406 L 22.761719 21.503906 L 17.988281 21.503906 L 14.246094 16.617188 L 9.96875 21.503906 L 7.59375 21.503906 L 13.136719 15.167969 L 7.292969 7.519531 L 12.183594 7.519531 L 15.5625 11.988281 Z M 18.640625 20.085938 L 19.953125 20.085938 L 11.46875 8.863281 L 10.058594 8.863281 Z M 18.640625 20.085938 " fill-opacity="1" fill-rule="nonzero"/></svg>