<svg xmlns="http://www.w3.org/2000/svg" xmlns:xlink="http://www.w3.org/1999/xlink" width="40" zoomAndPan="magnify" viewBox="0 0 30 30.000001" height="40" preserveAspectRatio="xMidYMid meet" version="1.0"><defs><clipPath id="af642a1c82"><path d="M 1.53125 1.046875 L 28.445312 1.046875 L 28.445312 27.960938 L 1.53125 27.960938 Z M 1.53125 1.046875 " clip-rule="nonzero"/></clipPath><clipPath id="adb2466697"><path d="M 5.296875 8 L 24.9375 8 L 24.9375 21 L 5.296875 21 Z M 5.296875 8 " clip-rule="nonzero"/></clipPath></defs><g clip-path="url(#af642a1c82)"><path fill="#f3e8cc" d="M 28.46875 14.515625 C 28.46875 15.398438 28.382812 16.277344 28.210938 17.144531 C 28.035156 18.011719 27.78125 18.851562 27.441406 19.667969 C 27.105469 20.488281 26.691406 21.261719 26.199219 22 C 25.707031 22.734375 25.148438 23.414062 24.523438 24.039062 C 23.898438 24.664062 23.21875 25.222656 22.480469 25.714844 C 21.746094 26.207031 20.972656 26.621094 20.152344 26.960938 C 19.335938 27.296875 18.496094 27.554688 17.625 27.726562 C 16.757812 27.898438 15.882812 27.984375 15 27.984375 C 14.113281 27.984375 13.238281 27.898438 12.371094 27.726562 C 11.503906 27.554688 10.660156 27.296875 9.84375 26.960938 C 9.027344 26.621094 8.25 26.207031 7.515625 25.714844 C 6.78125 25.222656 6.101562 24.664062 5.476562 24.039062 C 4.851562 23.414062 4.292969 22.734375 3.800781 22 C 3.308594 21.261719 2.894531 20.488281 2.554688 19.667969 C 2.21875 18.851562 1.960938 18.011719 1.789062 17.144531 C 1.617188 16.277344 1.53125 15.398438 1.53125 14.515625 C 1.53125 13.632812 1.617188 12.753906 1.789062 11.886719 C 1.960938 11.019531 2.21875 10.179688 2.554688 9.359375 C 2.894531 8.542969 3.308594 7.769531 3.800781 7.03125 C 4.292969 6.296875 4.851562 5.617188 5.476562 4.992188 C 6.101562 4.367188 6.78125 3.808594 7.515625 3.316406 C 8.25 2.824219 9.027344 2.410156 9.84375 2.070312 C 10.660156 1.734375 11.503906 1.476562 12.371094 1.304688 C 13.238281 1.132812 14.113281 1.046875 15 1.046875 C 15.882812 1.046875 16.757812 1.132812 17.625 1.304688 C 18.496094 1.476562 19.335938 1.734375 20.152344 2.070312 C 20.972656 2.410156 21.746094 2.824219 22.480469 3.316406 C 23.21875 3.808594 23.898438 4.367188 24.523438 4.992188 C 25.148438 5.617188 25.707031 6.296875 26.199219 7.03125 C 26.691406 7.769531 27.105469 8.542969 27.441406 9.359375 C 27.78125 10.179688 28.035156 11.019531 28.210938 11.886719 C 28.382812 12.753906 28.46875 13.632812 28.46875 14.515625 Z M 28.46875 14.515625 " fill-opacity="1" fill-rule="nonzero"/></g><g clip-path="url(#adb2466697)"><path fill="#236130" d="M 23.8125 10.070312 C 23.601562 9.273438 22.976562 8.648438 22.1875 8.433594 C 20.75 8.046875 15 8.046875 15 8.046875 C 15 8.046875 9.246094 8.046875 7.8125 8.433594 C 7.019531 8.648438 6.398438 9.273438 6.1875 10.070312 C 5.800781 11.515625 5.800781 14.527344 5.800781 14.527344 C 5.800781 14.527344 5.800781 17.539062 6.1875 18.984375 C 6.398438 19.78125 7.019531 20.378906 7.8125 20.59375 C 9.246094 20.980469 15 20.980469 15 20.980469 C 15 20.980469 20.75 20.980469 22.1875 20.59375 C 22.976562 20.378906 23.601562 19.777344 23.8125 18.984375 C 24.195312 17.539062 24.195312 14.527344 24.195312 14.527344 C 24.195312 14.527344 24.195312 11.515625 23.8125 10.070312 Z M 13.121094 17.261719 L 13.121094 11.792969 L 17.925781 14.527344 Z M 13.121094 17.261719 " fill-opacity="1" fill-rule="nonzero"/></g></svg>